<?xml version="1.0" encoding="utf-8"?>
<!-- Generator: Adobe Illustrator 19.0.0, SVG Export Plug-In . SVG Version: 6.00 Build 0)  -->
<svg version="1.1" id="Layer_1" xmlns="http://www.w3.org/2000/svg" xmlns:xlink="http://www.w3.org/1999/xlink" x="0px" y="0px"
	 viewBox="0 0 892 424" style="enable-background:new 0 0 892 424;" xml:space="preserve">
<style type="text/css">
	.st0{fill:#737278;}
	.st1{fill:none;stroke:#E0E0E2;stroke-width:2.0008;stroke-linecap:round;stroke-linejoin:round;stroke-miterlimit:10;}
	.st2{fill:#FFFFFF;}
	.st3{fill:#FFCA58;stroke:#323139;stroke-width:2.0008;stroke-miterlimit:10;}
	.st4{opacity:0.23;fill:#323139;stroke:#323139;stroke-width:2.0008;stroke-miterlimit:10;}
	.st5{fill:none;stroke:#FFEAA6;stroke-width:2.0008;stroke-linecap:round;stroke-linejoin:round;stroke-miterlimit:10;}
	.st6{fill:#FFA166;stroke:#323139;stroke-width:2.0008;stroke-miterlimit:10;}
	.st7{opacity:0.23;fill:#323139;}
	.st8{fill:#323139;stroke:#323139;stroke-width:2.0008;stroke-miterlimit:10;}
	.st9{fill:none;stroke:#76757B;stroke-width:2.0008;stroke-linecap:round;stroke-linejoin:round;stroke-miterlimit:10;}
	.st10{fill:#FFFFFF;stroke:#323139;stroke-width:2.0008;stroke-linecap:round;stroke-linejoin:round;stroke-miterlimit:10;}
	.st11{opacity:0.57;fill:#323139;stroke:#323139;stroke-width:2.0008;stroke-miterlimit:10;}
	.st12{fill:none;stroke:#323139;stroke-width:2.0008;stroke-linecap:round;stroke-linejoin:round;stroke-miterlimit:10;}
	.st13{fill:#FCB614;}
	
		.st14{opacity:0.42;fill:none;stroke:#FFEAA6;stroke-width:2.0008;stroke-linecap:round;stroke-linejoin:round;stroke-miterlimit:10;}
	.st15{fill:none;stroke:#323139;stroke-miterlimit:10;}
	.st16{fill:#F9AA0B;}
	.st17{fill:#323139;}
	.st18{fill:#FFCA58;stroke:#323139;stroke-width:2.0307;stroke-miterlimit:10;}
	.st19{fill:#FFCA58;stroke:#323139;stroke-width:2.0307;stroke-linecap:round;stroke-linejoin:round;stroke-miterlimit:10;}
	.st20{fill:#FFA166;stroke:#323139;stroke-width:2.0307;stroke-miterlimit:10;}
</style>
<g id="XMLID_4_">
	<path id="XMLID_5_" class="st0" d="M383.3,183.1H36c-13.4,0-24.4-11-24.4-24.4l0,0c0-13.4,11-24.4,24.4-24.4h347.3
		c13.4,0,24.4,11,24.4,24.4l0,0C407.7,172.1,396.7,183.1,383.3,183.1z"/>
	<path id="XMLID_6_" class="st0" d="M872.2,144.8H590.6c-10.9,0-19.8-8.9-19.8-19.8l0,0c0-10.9,8.9-19.8,19.8-19.8h281.6
		c10.9,0,19.8,8.9,19.8,19.8l0,0C892,135.9,883.1,144.8,872.2,144.8z"/>
	<path id="XMLID_7_" class="st0" d="M801.2,94.2H627.6c-6.7,0-12.2-5.5-12.2-12.2l0,0c0-6.7,5.5-12.2,12.2-12.2h173.6
		c6.7,0,12.2,5.5,12.2,12.2l0,0C813.4,88.7,807.9,94.2,801.2,94.2z"/>
	<path id="XMLID_9_" class="st0" d="M793.7,275.9H620c-6.7,0-12.2-5.5-12.2-12.2l0,0c0-6.7,5.5-12.2,12.2-12.2h173.6
		c6.7,0,12.2,5.5,12.2,12.2l0,0C805.9,270.4,800.4,275.9,793.7,275.9z"/>
	<path id="XMLID_10_" class="st0" d="M774.4,370.5H600.7c-6.7,0-12.2-5.5-12.2-12.2l0,0c0-6.7,5.5-12.2,12.2-12.2h173.6
		c6.7,0,12.2,5.5,12.2,12.2l0,0C786.6,365,781.1,370.5,774.4,370.5z"/>
	<path id="XMLID_11_" class="st0" d="M273.6,117.4H100c-6.7,0-12.2-5.5-12.2-12.2l0,0c0-6.7,5.5-12.2,12.2-12.2h173.6
		c6.7,0,12.2,5.5,12.2,12.2l0,0C285.8,112,280.3,117.4,273.6,117.4z"/>
	<path id="XMLID_12_" class="st0" d="M355.5,254.2H89.8c-11.2,0-20.3-9.1-20.3-20.3l0,0c0-11.2,9.1-20.3,20.3-20.3h265.7
		c11.2,0,20.3,9.1,20.3,20.3l0,0C375.8,245.1,366.6,254.2,355.5,254.2z"/>
	<path id="XMLID_13_" class="st0" d="M286,287.5H20.3C9.1,287.5,0,278.4,0,267.2l0,0c0-11.2,9.1-20.3,20.3-20.3H286
		c11.2,0,20.3,9.1,20.3,20.3l0,0C306.3,278.4,297.2,287.5,286,287.5z"/>
	<path id="XMLID_14_" class="st0" d="M809.9,327.6H544.2c-11.2,0-20.3-9.1-20.3-20.3l0,0c0-11.2,9.1-20.3,20.3-20.3h265.7
		c11.2,0,20.3,9.1,20.3,20.3l0,0C830.2,318.4,821,327.6,809.9,327.6z"/>
	<path id="XMLID_15_" class="st0" d="M814.8,241.3H549.1c-11.2,0-20.3-9.1-20.3-20.3l0,0c0-11.2,9.1-20.3,20.3-20.3h265.7
		c11.2,0,20.3,9.1,20.3,20.3l0,0C835.1,232.1,826,241.3,814.8,241.3z"/>
	<path id="XMLID_20_" class="st0" d="M350.6,364.2H84.9c-11.2,0-20.3-9.1-20.3-20.3l0,0c0-11.2,9.1-20.3,20.3-20.3h265.7
		c11.2,0,20.3,9.1,20.3,20.3l0,0C370.9,355,361.8,364.2,350.6,364.2z"/>
	<g id="XMLID_298_">
		<g id="XMLID_22_">
			<line id="XMLID_465_" class="st1" x1="193.4" y1="196" x2="231.8" y2="196"/>
			<line id="XMLID_462_" class="st1" x1="200.1" y1="207.1" x2="238.5" y2="207.1"/>
			<line id="XMLID_459_" class="st1" x1="343.2" y1="159.7" x2="381.6" y2="159.7"/>
			<line id="XMLID_456_" class="st1" x1="336" y1="173.4" x2="374.4" y2="173.4"/>
			<line id="XMLID_453_" class="st1" x1="390.6" y1="305" x2="429" y2="305"/>
			<line id="XMLID_450_" class="st1" x1="461.7" y1="297.4" x2="500.1" y2="297.4"/>
			<line id="XMLID_447_" class="st1" x1="577.2" y1="364.4" x2="615.6" y2="364.4"/>
			<line id="XMLID_444_" class="st1" x1="580.7" y1="375.6" x2="619.1" y2="375.6"/>
			<line id="XMLID_441_" class="st1" x1="686.9" y1="144.6" x2="725.3" y2="144.6"/>
			<line id="XMLID_438_" class="st1" x1="481.9" y1="125.4" x2="520.3" y2="125.4"/>
			<line id="XMLID_435_" class="st1" x1="476.5" y1="135" x2="514.9" y2="135"/>
			<line id="XMLID_432_" class="st1" x1="671.3" y1="152.8" x2="709.7" y2="152.8"/>
			<line id="XMLID_429_" class="st1" x1="379.5" y1="313.9" x2="417.9" y2="313.9"/>
		</g>
		<g id="XMLID_426_">
			<g id="XMLID_480_">
				<path id="XMLID_2128_" class="st2" d="M232.4,204.7L189,38.8l-0.2-1c0-1.5,0.9-2.2,2.7-2.2h30.4c1.6,0,2.7,0.8,3.2,2.5
					l23.3,99.7c0.2,0.7,0.4,1,0.7,1c0.3,0,0.6-0.3,0.7-1l22.5-99.5c0.5-1.8,1.6-2.7,3.2-2.7h29.7c1.8,0,2.9,0.8,3.4,2.5l24.5,99.7
					c0.2,0.5,0.4,0.8,0.7,0.9c0.3,0.1,0.6-0.2,0.7-0.9l22.5-99.5c0.5-1.8,1.6-2.7,3.2-2.7h28.9c2.3,0,3.2,1.1,2.7,3.2l-40.2,165.9
					c-0.5,1.6-1.6,2.5-3.4,2.5h-29.2c-1.6,0-2.7-0.8-3.2-2.5L291,98.6c-0.2-0.7-0.4-1-0.7-1c-0.3,0-0.6,0.3-0.7,1l-23.3,105.9
					c-0.3,1.8-1.4,2.7-3.2,2.7h-27.2C234,207.1,232.9,206.3,232.4,204.7z"/>
				<path id="XMLID_2132_" class="st2" d="M524.7,64.4c-0.6,0.6-1.3,0.9-2.1,0.9h-80.4c-0.8,0-1.2,0.4-1.2,1.2v38
					c0,0.8,0.4,1.2,1.2,1.2h52.7c0.8,0,1.5,0.3,2.1,0.9c0.6,0.6,0.9,1.3,0.9,2.1v23.8c0,0.8-0.3,1.5-0.9,2.1
					c-0.6,0.6-1.3,0.9-2.1,0.9h-52.7c-0.8,0-1.2,0.4-1.2,1.2v39.7c0,0.8,0.4,1.2,1.2,1.2h80.4c0.8,0,1.5,0.3,2.1,0.9
					c0.6,0.6,0.9,1.3,0.9,2.1v23.8c0,0.8-0.3,1.5-0.9,2.1c-0.6,0.6-1.3,0.9-2.1,0.9H409.4c-0.8,0-1.5-0.3-2.1-0.9
					c-0.6-0.6-0.9-1.3-0.9-2.1V38.5c0-0.8,0.3-1.5,0.9-2.1c0.6-0.6,1.3-0.9,2.1-0.9h113.2c0.8,0,1.5,0.3,2.1,0.9
					c0.6,0.6,0.9,1.3,0.9,2.1v23.8C525.5,63.1,525.2,63.8,524.7,64.4z"/>
				<path id="XMLID_2174_" class="st2" d="M646.4,119.2c15.5,8,23.3,21.3,23.3,39.9c0,15.9-5.4,27.8-16.2,35.9
					c-10.8,8.1-24.9,12.1-42.4,12.1h-63.5c-0.8,0-1.5-0.3-2.1-0.9c-0.6-0.6-0.9-1.3-0.9-2.1V38.5c0-0.8,0.3-1.5,0.9-2.1
					c0.6-0.6,1.3-0.9,2.1-0.9h61.5c38.7,0,58.1,15.7,58.1,47.1c0,16.3-6.9,28-20.8,35C645.4,118.2,645.4,118.7,646.4,119.2z
					 M579.2,66.5v38.2c0,0.8,0.4,1.2,1.2,1.2h28.7c7.7,0,13.6-1.8,17.9-5.4c4.2-3.6,6.4-8.5,6.4-14.7c0-6.4-2.1-11.4-6.4-15.1
					c-4.3-3.7-10.2-5.5-17.9-5.5h-28.7C579.6,65.2,579.2,65.6,579.2,66.5z M628.7,171.5c4.2-3.8,6.4-9.1,6.4-15.8
					c0-6.7-2.1-12-6.4-15.8c-4.3-3.8-10.2-5.8-17.9-5.8h-30.4c-0.8,0-1.2,0.4-1.2,1.2V176c0,0.8,0.4,1.2,1.2,1.2h30.6
					C618.6,177.2,624.5,175.3,628.7,171.5z"/>
			</g>
		</g>
		<g id="XMLID_70_">
			<g id="XMLID_153_">
				<path id="XMLID_160_" class="st2" d="M225.2,390.5c-9.8-4.2-17.4-10.1-22.7-17.9c-5.3-7.8-8-16.8-8-27.1v-5.4
					c0-0.8,0.3-1.5,0.9-2.1c0.6-0.6,1.3-0.9,2.1-0.9h27.9c0.8,0,1.5,0.3,2.1,0.9c0.6,0.6,0.9,1.3,0.9,2.1v3.7c0,6.5,3,12.1,9.1,16.5
					c6,4.5,14.2,6.7,24.5,6.7c8.7,0,15.1-1.8,19.4-5.5c4.2-3.7,6.4-8.2,6.4-13.6c0-3.9-1.3-7.2-3.9-9.9c-2.6-2.7-6.2-5.1-10.7-7.1
					c-4.5-2-11.6-4.9-21.4-8.5c-10.9-3.8-20.2-7.6-27.8-11.5c-7.6-3.9-14-9.3-19.1-16.1c-5.1-6.8-7.7-15.2-7.7-25.1
					c0-9.8,2.5-18.4,7.6-25.7c5.1-7.4,12.1-13,21.1-16.9c9-3.9,19.4-5.9,31.1-5.9c12.4,0,23.5,2.2,33.2,6.6
					c9.7,4.4,17.3,10.6,22.8,18.5c5.5,7.9,8.2,17.1,8.2,27.6v3.7c0,0.8-0.3,1.5-0.9,2.1c-0.6,0.6-1.3,0.9-2.1,0.9h-28.2
					c-0.8,0-1.5-0.3-2.1-0.9c-0.6-0.6-0.9-1.3-0.9-2.1v-2c0-6.9-2.8-12.7-8.5-17.5c-5.6-4.8-13.4-7.2-23.2-7.2
					c-7.7,0-13.7,1.6-18,4.9c-4.3,3.3-6.5,7.8-6.5,13.5c0,4.1,1.3,7.5,3.8,10.3c2.5,2.8,6.3,5.3,11.3,7.5c5,2.2,12.7,5.2,23.2,8.9
					c11.6,4.3,20.7,8,27.3,11.3c6.6,3.3,12.6,8.1,17.9,14.6c5.3,6.5,8,14.8,8,25.1c0,15.4-5.6,27.5-16.9,36.4
					c-11.3,8.9-26.6,13.4-45.8,13.4C246.5,396.8,235,394.7,225.2,390.5z"/>
				<path id="XMLID_158_" class="st2" d="M342.5,393.9c-0.6-0.6-0.9-1.3-0.9-2.1V226.2c0-0.8,0.3-1.5,0.9-2.1
					c0.6-0.6,1.3-0.9,2.1-0.9h28.7c0.8,0,1.5,0.3,2.1,0.9c0.6,0.6,0.9,1.3,0.9,2.1v165.7c0,0.8-0.3,1.5-0.9,2.1
					c-0.6,0.6-1.3,0.9-2.1,0.9h-28.7C343.8,394.8,343.1,394.5,342.5,393.9z"/>
				<path id="XMLID_156_" class="st2" d="M521.7,224.1c0.6,0.6,0.9,1.3,0.9,2.1v24c0,0.8-0.3,1.5-0.9,2.1c-0.6,0.6-1.3,0.9-2.1,0.9
					h-43.9c-0.8,0-1.2,0.4-1.2,1.2v137.5c0,0.8-0.3,1.5-0.9,2.1c-0.6,0.6-1.3,0.9-2.1,0.9h-28.7c-0.8,0-1.5-0.3-2.1-0.9
					c-0.6-0.6-0.9-1.3-0.9-2.1V254.4c0-0.8-0.4-1.2-1.2-1.2H396c-0.8,0-1.5-0.3-2.1-0.9c-0.6-0.6-0.9-1.3-0.9-2.1v-24
					c0-0.8,0.3-1.5,0.9-2.1c0.6-0.6,1.3-0.9,2.1-0.9h123.5C520.4,223.2,521.1,223.5,521.7,224.1z"/>
				<path id="XMLID_154_" class="st2" d="M657.9,252c-0.6,0.6-1.3,0.9-2.1,0.9h-80.4c-0.8,0-1.2,0.4-1.2,1.2v38
					c0,0.8,0.4,1.2,1.2,1.2h52.7c0.8,0,1.5,0.3,2.1,0.9c0.6,0.6,0.9,1.3,0.9,2.1V320c0,0.8-0.3,1.5-0.9,2.1
					c-0.6,0.6-1.3,0.9-2.1,0.9h-52.7c-0.8,0-1.2,0.4-1.2,1.2v39.7c0,0.8,0.4,1.2,1.2,1.2h80.4c0.8,0,1.5,0.3,2.1,0.9
					c0.6,0.6,0.9,1.3,0.9,2.1v23.8c0,0.8-0.3,1.5-0.9,2.1c-0.6,0.6-1.3,0.9-2.1,0.9H542.6c-0.8,0-1.5-0.3-2.1-0.9
					c-0.6-0.6-0.9-1.3-0.9-2.1V226.2c0-0.8,0.3-1.5,0.9-2.1c0.6-0.6,1.3-0.9,2.1-0.9h113.2c0.8,0,1.5,0.3,2.1,0.9
					c0.6,0.6,0.9,1.3,0.9,2.1v23.8C658.8,250.8,658.5,251.5,657.9,252z"/>
			</g>
		</g>
		<g id="XMLID_351_">
			<g id="XMLID_31_">
				<path id="XMLID_422_" class="st3" d="M174.5,318.3l-30.7,77.1h70.7l-30.7-77.1C182,314.2,176.1,314.2,174.5,318.3z"/>
				<polygon id="XMLID_32_" class="st4" points="147.4,386.2 143.7,395.4 214.4,395.4 210.7,386.2 				"/>
				<line id="XMLID_420_" class="st5" x1="180.6" y1="326.8" x2="203.8" y2="384"/>
				<path id="XMLID_33_" class="st6" d="M219.5,400.8h-80.9c-2.3,0-4.1-1.9-4.1-4.1l0,0c0-2.3,1.9-4.1,4.1-4.1h80.9
					c2.3,0,4.1,1.9,4.1,4.1l0,0C223.6,398.9,221.7,400.8,219.5,400.8z"/>
				<path id="XMLID_34_" class="st7" d="M219.5,396.7h-80.9c-1.5,0-2.8-0.8-3.5-2.1c-0.4,0.6-0.6,1.3-0.6,2.1c0,2.3,1.9,4.1,4.1,4.1
					h80.9c2.3,0,4.1-1.9,4.1-4.1c0-0.8-0.2-1.5-0.6-2.1C222.3,395.8,221,396.7,219.5,396.7z"/>
				<polygon id="XMLID_35_" class="st8" points="152.2,374.1 205.9,374.1 196.6,350.8 161.5,350.8 				"/>
				<line id="XMLID_416_" class="st9" x1="191.5" y1="353.5" x2="198.5" y2="370.9"/>
			</g>
			<g id="XMLID_36_">
				<g id="XMLID_37_">
					<g id="XMLID_38_">
						<rect id="XMLID_411_" x="420" y="360.9" class="st10" width="5.8" height="45.9"/>
						<rect id="XMLID_103_" x="420" y="360.9" class="st11" width="5.8" height="14"/>
						<line id="XMLID_409_" class="st12" x1="415.6" y1="406.8" x2="430.2" y2="406.8"/>
					</g>
					<g id="XMLID_39_">
						<rect id="XMLID_102_" x="502.4" y="360.9" class="st10" width="5.8" height="45.9"/>
						<rect id="XMLID_101_" x="502.4" y="360.9" class="st11" width="5.8" height="14"/>
						<line id="XMLID_402_" class="st12" x1="498" y1="406.8" x2="512.6" y2="406.8"/>
					</g>
				</g>
				<path id="XMLID_100_" class="st13" d="M529.8,362.7H398.3c-2.1,0-3.8-1.7-3.8-3.8v-23c0-2.1,1.7-3.8,3.8-3.8h131.5
					c2.1,0,3.8,1.7,3.8,3.8v23C533.6,361,531.9,362.7,529.8,362.7z"/>
				<path id="XMLID_42_" class="st4" d="M529.8,347.4H398.3c-2.1,0-3.8-1.7-3.8-3.8v15.3c0,2.1,1.7,3.8,3.8,3.8h131.5
					c2.1,0,3.8-1.7,3.8-3.8v-15.3C533.6,345.7,531.9,347.4,529.8,347.4z"/>
				<g id="XMLID_45_">
					<polygon id="XMLID_46_" class="st8" points="401.5,362.7 409.9,362.7 420.2,332.2 411.8,332.2 					"/>
					<polygon id="XMLID_47_" class="st8" points="422.8,362.7 431.2,362.7 441.5,332.2 433.1,332.2 					"/>
					<polygon id="XMLID_48_" class="st8" points="444.1,362.7 452.5,362.7 462.8,332.2 454.4,332.2 					"/>
					<polygon id="XMLID_49_" class="st8" points="465.4,362.7 473.8,362.7 484.1,332.2 475.7,332.2 					"/>
					<polygon id="XMLID_50_" class="st8" points="486.7,362.7 495.1,362.7 505.4,332.2 497,332.2 					"/>
					<polygon id="XMLID_51_" class="st8" points="508,362.7 516.4,362.7 526.7,332.2 518.3,332.2 					"/>
				</g>
				<line id="XMLID_390_" class="st14" x1="403.4" y1="337.6" x2="524.8" y2="337.6"/>
			</g>
			<g id="XMLID_52_">
				<path id="XMLID_388_" class="st3" d="M219,331.2l-30.7,77.1h70.7l-30.7-77.1C226.5,327.1,220.7,327.1,219,331.2z"/>
				<polygon id="XMLID_53_" class="st4" points="191.9,399.1 188.3,408.3 258.9,408.3 255.3,399.1 				"/>
				<line id="XMLID_386_" class="st5" x1="225.1" y1="339.7" x2="248.4" y2="396.8"/>
				<path id="XMLID_54_" class="st6" d="M264,413.7h-80.9c-2.3,0-4.1-1.9-4.1-4.1l0,0c0-2.3,1.9-4.1,4.1-4.1H264
					c2.3,0,4.1,1.9,4.1,4.1l0,0C268.2,411.8,266.3,413.7,264,413.7z"/>
				<path id="XMLID_55_" class="st7" d="M264,409.5h-80.9c-1.5,0-2.8-0.8-3.5-2.1c-0.4,0.6-0.6,1.3-0.6,2.1c0,2.3,1.9,4.1,4.1,4.1
					H264c2.3,0,4.1-1.9,4.1-4.1c0-0.8-0.2-1.5-0.6-2.1C266.9,408.7,265.5,409.5,264,409.5z"/>
				<polygon id="XMLID_56_" class="st8" points="196.8,386.9 250.4,386.9 241.1,363.7 206.1,363.7 				"/>
				<line id="XMLID_382_" class="st9" x1="236" y1="366.4" x2="243.1" y2="383.8"/>
			</g>
			<line id="XMLID_380_" class="st12" x1="599.9" y1="401.6" x2="647.8" y2="401.6"/>
			<line id="XMLID_379_" class="st12" x1="630" y1="409.4" x2="641" y2="409.4"/>
			<line id="XMLID_378_" class="st12" x1="420" y1="415.9" x2="425.8" y2="415.9"/>
			<line id="XMLID_377_" class="st12" x1="370.3" y1="403.4" x2="401.1" y2="403.4"/>
			<line id="XMLID_376_" class="st12" x1="524.8" y1="398.2" x2="543.4" y2="398.2"/>
			<line id="XMLID_375_" class="st12" x1="355.2" y1="403.4" x2="344.2" y2="403.4"/>
			<line id="XMLID_374_" class="st12" x1="205.9" y1="424" x2="250.4" y2="424"/>
			<line id="XMLID_373_" class="st12" x1="145.3" y1="413.7" x2="155.7" y2="413.7"/>
			<line id="XMLID_372_" class="st15" x1="153.3" y1="296.6" x2="190.4" y2="296.6"/>
			<line id="XMLID_371_" class="st12" x1="344.2" y1="342.5" x2="380.5" y2="342.5"/>
			<line id="XMLID_370_" class="st12" x1="349.7" y1="329" x2="362.4" y2="329"/>
			<line id="XMLID_369_" class="st15" x1="556.5" y1="318" x2="517.3" y2="318"/>
			<line id="XMLID_368_" class="st15" x1="556.5" y1="307.1" x2="536.9" y2="307.1"/>
			<line id="XMLID_367_" class="st15" x1="577.2" y1="297.4" x2="599.9" y2="297.4"/>
			<line id="XMLID_366_" class="st15" x1="582" y1="309.1" x2="593" y2="309.1"/>
			<line id="XMLID_365_" class="st15" x1="540.2" y1="168.6" x2="593" y2="168.6"/>
			<line id="XMLID_364_" class="st15" x1="546.4" y1="178.2" x2="566.6" y2="178.2"/>
			<line id="XMLID_363_" class="st15" x1="385.7" y1="122.7" x2="414.3" y2="122.7"/>
			<line id="XMLID_362_" class="st15" x1="394.6" y1="135" x2="402.9" y2="135"/>
			<line id="XMLID_361_" class="st15" x1="307.2" y1="80.8" x2="333.3" y2="80.8"/>
			<line id="XMLID_360_" class="st15" x1="314.1" y1="93.2" x2="320.2" y2="93.2"/>
			<line id="XMLID_359_" class="st15" x1="176.4" y1="141.8" x2="211.3" y2="141.8"/>
			<line id="XMLID_358_" class="st15" x1="185.8" y1="152.8" x2="201" y2="152.8"/>
			<line id="XMLID_357_" class="st15" x1="701.3" y1="84.3" x2="672.5" y2="84.3"/>
			<line id="XMLID_356_" class="st15" x1="696.6" y1="93.2" x2="681.2" y2="93.2"/>
			<line id="XMLID_355_" class="st12" x1="502.4" y1="415.9" x2="508.2" y2="415.9"/>
			<line id="XMLID_354_" class="st15" x1="174.5" y1="283.5" x2="211" y2="283.5"/>
			<line id="XMLID_353_" class="st15" x1="658.1" y1="324.6" x2="695.1" y2="324.6"/>
			<line id="XMLID_352_" class="st15" x1="672.4" y1="315.1" x2="708.9" y2="315.1"/>
		</g>
		<g id="XMLID_30_">
			<g id="XMLID_57_">
				<rect id="XMLID_347_" x="715.5" y="249.3" class="st10" width="6.9" height="155.3"/>
				<rect id="XMLID_69_" x="715.5" y="249.3" class="st11" width="6.9" height="16.5"/>
				<line id="XMLID_317_" class="st12" x1="710.3" y1="404.6" x2="727.5" y2="404.6"/>
			</g>
			<g id="XMLID_58_">
				<g id="XMLID_61_">
					<path id="XMLID_68_" class="st16" d="M773,205.8l-43.3,43.3c-6,6-15.7,6-21.6,0l-43.3-43.3c-6-6-6-15.7,0-21.6l43.3-43.3
						c6-6,15.7-6,21.6,0l43.3,43.3C779,190.1,779,199.8,773,205.8z"/>
				</g>
				<g id="XMLID_62_">
					<g id="XMLID_77_">
						<path id="XMLID_87_" class="st13" d="M760.3,203.3l-33.1,33.1c-4.6,4.6-12,4.6-16.5,0l-33.1-33.1c-4.6-4.6-4.6-12,0-16.5
							l33.1-33.1c4.6-4.6,12-4.6,16.5,0l33.1,33.1C764.9,191.3,764.9,198.7,760.3,203.3z"/>
					</g>
				</g>
				<path id="XMLID_63_" class="st4" d="M773,185.8l-43.3,43.3c-6,6-15.7,6-21.6,0l-43.3-43.3c-0.3-0.3-0.4-0.5-0.7-0.8
					c-5.2,6-5.1,15.1,0.7,20.8l43.3,43.3c6,6,15.7,6,21.6,0l43.3-43.3c5.7-5.7,5.9-14.8,0.7-20.8C773.4,185.2,773.2,185.5,773,185.8
					z"/>
				<g id="XMLID_26_">
					<path id="XMLID_27_" class="st17" d="M710.3,212.4c0-2,1.4-3.5,3.3-3.5c2,0,3.3,1.5,3.3,3.5c0,2-1.3,3.5-3.3,3.5
						C711.7,215.9,710.3,214.4,710.3,212.4z M711.8,204.3L711,177h5.4l-0.8,27.2H711.8z"/>
				</g>
			</g>
		</g>
		<g id="XMLID_299_">
			<path id="XMLID_304_" class="st18" d="M468.4,32C463.1,12.2,443,0.1,423,5.1c-20,4.9-32.3,25-27.7,45L468.4,32z"/>
			<path id="XMLID_303_" class="st19" d="M419.7,38.8L411.2,13c-1.2-4.9,1.8-9.8,6.7-11l8.1-2c4.9-1.2,9.8,1.8,11,6.7l4.6,26.7"/>
			<path id="XMLID_302_" class="st7" d="M395.3,33.3c-1.2,5.4-1.3,11.1,0,16.8l73.1-18c-1.5-5.7-4.2-10.7-7.8-14.9L395.3,33.3z"/>
			<path id="XMLID_301_" class="st20" d="M470.9,37.3l-75.3,18.6c-3.1,0.8-6.2-1.1-7-4.2l0,0c-0.8-3.1,1.1-6.2,4.2-7l75.3-18.6
				c3.1-0.8,6.2,1.1,7,4.2l0,0C475.8,33.4,473.9,36.6,470.9,37.3z"/>
			<path id="XMLID_300_" class="st7" d="M469.3,31.1L394,49.7c-1.9,0.5-3.9-0.1-5.2-1.3c-0.4,1-0.5,2.2-0.2,3.4c0.8,3.1,3.9,5,7,4.2
				l75.3-18.6c3.1-0.8,5-3.9,4.2-7c-0.3-1.2-0.9-2.1-1.7-2.9C472.7,29.2,471.2,30.6,469.3,31.1z"/>
		</g>
	</g>
</g>
</svg>
