<?xml version="1.0" encoding="utf-8"?>
<!-- Generator: Adobe Illustrator 19.0.0, SVG Export Plug-In . SVG Version: 6.00 Build 0)  -->
<svg version="1.1" id="Layer_1" xmlns="http://www.w3.org/2000/svg" xmlns:xlink="http://www.w3.org/1999/xlink" x="0px" y="0px"
	 viewBox="0 0 327 85" style="enable-background:new 0 0 327 85;" xml:space="preserve">
<style type="text/css">
	.st0{fill:#FDB814;}
	.st1{fill:#FFFFFF;}
</style>
<g id="XMLID_2_">
	<path id="XMLID_122_" class="st0" d="M77.4,48.8l-15.7-9V21.6l15.8-9.1L94,22l-16.7,9.7l-6.1-3.6L81.6,22l-4.1-2.3l-9.6,5.5v10.9
		l9.5,5.5l10.4-6.1l6.2,3.6L77.4,48.8z M63.6,38.7l13.8,7.9l12.9-7.4l-2.5-1.5l-10.4,6.1L66,37.2V24.2l11.5-6.6l7.7,4.5l-10.2,6
		l2.4,1.4L90.3,22l-12.8-7.4l-13.9,8.1V38.7z"/>
	<path id="XMLID_110_" class="st0" d="M113.4,48.9l-15.9-9.2V3.5l6.3,3.6V18c1.3-0.7,9.5-5.4,9.5-5.4l15.9,9v18.1L113.4,48.9z
		 M99.5,38.7l13.9,8l13.8-8v-16c0,0-12.2-7-13.9-7.9c-1.5,0.9-11.4,6.4-11.4,6.4v-13c-0.8-0.5-2.4-1.4-2.4-1.4L99.5,38.7z
		 M113.3,43.8l-11.3-6.6V24.2l11.5-6.6l11.4,6.6v13.1L113.3,43.8z M103.8,36.1l9.5,5.5l9.6-5.5V25.3c-1.6-0.9-7.9-4.6-9.5-5.5
		c-1.6,0.9-8,4.6-9.6,5.5V36.1z"/>
	<path id="XMLID_109_" class="st1" d="M155.5,13.6l14.8,8.5l-4.4,2.5l-10.3-5.9l-10.5,6.1v12l10.4,6.1c0,0,8.7-5,10.4-6.1l4.4,2.5
		l-14.7,8.6l-14.9-8.6V22.2C140.7,22.2,153.1,15,155.5,13.6"/>
	<path id="XMLID_106_" class="st1" d="M188.6,14.2c-1.2,0.7-14.8,8.6-14.8,8.6v17l14.9,8.6l14.8-8.6v-17L188.6,14.2z M199.2,37.2
		l-10.5,6.2l-10.4-6.1v-12c1.8-1,10.5-6.1,10.5-6.1l10.4,6.1V37.2z"/>
	<path id="XMLID_103_" class="st1" d="M232.3,6.6l4.4-2.5v0.1v35.6l-14.9,8.6L207,39.8V22.7l14.9-8.5l10.4,5.9V6.6z M221.8,19.2
		l-10.4,6.1v12l10.5,6.1l10.4-6.1v-12C232.3,25.2,223.6,20.2,221.8,19.2"/>
	<path id="XMLID_102_" class="st1" d="M269.7,22c0,0-12.3,7.1-14.8,8.6c-0.7-0.4-3.5-2.1-4.2-2.5c1.7-1,10.3-6.1,10.3-6.1l-6-3.3
		l-10.4,6v12l10.4,6.1l10.4-6.1l4.4,2.5l-14.8,8.5l-14.8-8.5V22.2l14.8-8.5C254.9,13.6,267.5,20.8,269.7,22"/>
	<path id="XMLID_101_" class="st1" d="M277.6,16.9v12c0,0,9-5.1,10.4-5.9v5L277.6,34v12l-4.4,2.5V14.4
		C273.3,14.4,277,16.5,277.6,16.9"/>
	<path id="XMLID_100_" class="st1" d="M306.6,14.1l14.7,8.6l-4.2,2.4l-10.4-5.9l-10.5,5.9c0,0,24.7,14.4,25.2,14.7
		c-2.4,1.4-12.2,7.1-14.7,8.5c-2.5-1.4-14.8-8.5-14.8-8.5l4.4-2.5l10.4,6.1l5.9-3.5l-20.8-12.1v-5C291.8,22.7,304.1,15.5,306.6,14.1
		"/>
	<path id="XMLID_92_" class="st0" d="M12,7.2v29.5l9.6,5.5l10.4-9.7l10.4,9.7l9.6-5.4l0-29.6l6.2-3.6v36.8l-15.7,9.1l-10.5-9.7
		l-10.3,9.7L5.7,40.3V3.5 M7.6,6.7v32.5l13.9,8.1l10.4-9.7l10.5,9.7l6.9-4c0,0,4.6-2.7,7-4.1V6.6l-2.5,1.5l0.1,29.8l-0.5,0.3
		c-1.8,1-3.5,2-5.2,3c-1.7,1-5.8,3.2-5.8,3.2l-10.4-9.7l-10.3,9.7l-11.5-6.6V8.1"/>
	<g id="XMLID_79_">
		<g id="XMLID_45_">
			<path id="XMLID_46_" class="st0" d="M188.7,25.6C188.7,25.6,188.7,25.6,188.7,25.6c0.1,0,0.2,0,0.2,0.1c1.7,0.7,3.4,1.4,5.1,2.1
				c0.2,0.1,0.2,0.1,0.2,0.3c0,2.1,0,4.2,0,6.2c0,0.2,0,0.2-0.2,0.3c-1.8,0.7-3.5,1.5-5.3,2.2c0,0-0.1,0-0.1,0c0,0-0.1,0-0.1,0
				c-1.7-0.7-3.4-1.4-5.2-2.1c-0.2-0.1-0.2-0.1-0.2-0.3c0-2.1,0-4.2,0-6.3c0-0.2,0-0.2,0.2-0.3c0.5-0.2,1-0.4,1.5-0.6
				C186.2,26.7,187.4,26.2,188.7,25.6z M188.9,36.4c0,0,0.1,0,0.1,0c1.6-0.7,3.1-1.3,4.7-2c0.1,0,0.1-0.1,0.1-0.2c0-1.9,0-3.9,0-5.8
				c0,0,0-0.1,0-0.1c0,0-0.1,0-0.1,0c-1.6,0.7-3.2,1.3-4.8,2c-0.1,0-0.1,0.1-0.1,0.2c0,1.9,0,3.9,0,5.8
				C188.9,36.3,188.9,36.3,188.9,36.4z M188.5,36.4c0-0.1,0-0.1,0-0.1c0-1.9,0-3.8,0-5.8c0-0.1,0-0.1-0.1-0.2
				c-1.3-0.5-2.6-1.1-3.8-1.6c-0.3-0.1-0.7-0.3-1-0.4c0,0,0,0.1,0,0.1c0,1.9,0,3.9,0,5.8c0,0.1,0,0.1,0.1,0.1
				c1.4,0.6,2.8,1.1,4.2,1.7C188.1,36.2,188.3,36.3,188.5,36.4z M183.9,28c1.6,0.7,3.2,1.3,4.8,2c0,0,0.1,0,0.2,0
				c1.5-0.6,3.1-1.3,4.6-1.9c0,0,0,0,0.1,0c0,0-0.1,0-0.1,0c-1.6-0.6-3.1-1.3-4.7-1.9c0,0-0.1,0-0.2,0c-1.3,0.5-2.6,1.1-3.9,1.6
				C184.5,27.8,184.2,27.9,183.9,28z"/>
		</g>
	</g>
	<g id="XMLID_3_">
		<path id="XMLID_77_" class="st1" d="M12.4,75.5H8.1v3.5h4.9V80H6.8v-9.8H13v1.1H8.1v3.2h4.2V75.5z"/>
		<path id="XMLID_75_" class="st1" d="M21.7,72.7l0,0.8c0.5-0.6,1.3-0.9,2.2-0.9c1,0,1.7,0.4,2.1,1.2c0.2-0.3,0.6-0.6,0.9-0.8
			c0.4-0.2,0.8-0.3,1.4-0.3c1.6,0,2.4,0.8,2.4,2.5V80h-1.2v-4.8c0-0.5-0.1-0.9-0.4-1.2s-0.6-0.4-1.2-0.4c-0.5,0-0.8,0.1-1.1,0.4
			c-0.3,0.3-0.5,0.6-0.5,1.1V80H25v-4.8c0-1.1-0.5-1.6-1.6-1.6c-0.8,0-1.4,0.3-1.7,1V80h-1.2v-7.3H21.7z"/>
		<path id="XMLID_72_" class="st1" d="M44.9,76.4c0,1.1-0.3,2-0.8,2.7c-0.5,0.7-1.2,1-2.1,1c-0.9,0-1.6-0.3-2.1-0.8v3.5h-1.2V72.7
			h1.1l0.1,0.8c0.5-0.6,1.2-0.9,2.1-0.9c0.9,0,1.6,0.3,2.1,1c0.5,0.7,0.8,1.6,0.8,2.7V76.4z M43.6,76.3c0-0.8-0.2-1.5-0.5-1.9
			c-0.3-0.5-0.8-0.7-1.4-0.7c-0.8,0-1.3,0.3-1.7,1v3.5c0.4,0.7,0.9,1,1.7,1c0.6,0,1.1-0.2,1.4-0.7S43.6,77.2,43.6,76.3z"/>
		<path id="XMLID_69_" class="st1" d="M52.2,76.3c0-0.7,0.1-1.4,0.4-1.9s0.7-1,1.2-1.3c0.5-0.3,1.1-0.5,1.7-0.5c1,0,1.8,0.3,2.4,1
			c0.6,0.7,0.9,1.6,0.9,2.7v0.1c0,0.7-0.1,1.3-0.4,1.9c-0.3,0.6-0.7,1-1.2,1.3c-0.5,0.3-1.1,0.5-1.7,0.5c-1,0-1.8-0.3-2.4-1
			S52.2,77.5,52.2,76.3L52.2,76.3z M53.5,76.4c0,0.8,0.2,1.5,0.6,1.9s0.9,0.7,1.5,0.7c0.6,0,1.1-0.2,1.5-0.7s0.6-1.2,0.6-2.1
			c0-0.8-0.2-1.4-0.6-1.9c-0.4-0.5-0.9-0.7-1.5-0.7c-0.6,0-1.1,0.2-1.5,0.7C53.7,74.8,53.5,75.5,53.5,76.4z"/>
		<path id="XMLID_67_" class="st1" d="M72.9,78.3l1.4-5.6h1.2L73.5,80h-1l-1.8-5.5L69,80h-1l-2.1-7.3h1.2l1.4,5.4l1.7-5.4h1
			L72.9,78.3z"/>
		<path id="XMLID_64_" class="st1" d="M86,80.1c-1,0-1.8-0.3-2.4-1c-0.6-0.6-0.9-1.5-0.9-2.6v-0.2c0-0.7,0.1-1.4,0.4-1.9
			c0.3-0.6,0.7-1,1.2-1.3c0.5-0.3,1-0.5,1.6-0.5c0.9,0,1.7,0.3,2.2,0.9s0.8,1.5,0.8,2.7v0.5h-4.9c0,0.7,0.2,1.3,0.6,1.7
			s0.9,0.7,1.5,0.7c0.4,0,0.8-0.1,1.1-0.3c0.3-0.2,0.6-0.4,0.8-0.7l0.8,0.6C88.1,79.7,87.2,80.1,86,80.1z M85.8,73.6
			c-0.5,0-0.9,0.2-1.3,0.5c-0.3,0.4-0.6,0.9-0.6,1.5h3.6v-0.1c0-0.6-0.2-1.1-0.5-1.5C86.7,73.8,86.3,73.6,85.8,73.6z"/>
		<path id="XMLID_62_" class="st1" d="M99.9,73.8c-0.2,0-0.4,0-0.6,0c-0.8,0-1.4,0.3-1.7,1V80h-1.2v-7.3h1.2l0,0.8
			c0.4-0.6,1-1,1.7-1c0.2,0,0.4,0,0.6,0.1V73.8z"/>
		<path id="XMLID_60_" class="st1" d="M119.8,75.1l2.6-4.9h1.5l-3.4,6.1V80h-1.3v-3.7l-3.4-6.1h1.5L119.8,75.1z"/>
		<path id="XMLID_51_" class="st1" d="M130.2,76.3c0-0.7,0.1-1.4,0.4-1.9c0.3-0.6,0.7-1,1.2-1.3c0.5-0.3,1.1-0.5,1.7-0.5
			c1,0,1.8,0.3,2.4,1c0.6,0.7,0.9,1.6,0.9,2.7v0.1c0,0.7-0.1,1.3-0.4,1.9c-0.3,0.6-0.7,1-1.2,1.3c-0.5,0.3-1.1,0.5-1.7,0.5
			c-1,0-1.8-0.3-2.4-1C130.5,78.4,130.2,77.5,130.2,76.3L130.2,76.3z M131.5,76.4c0,0.8,0.2,1.5,0.6,1.9c0.4,0.5,0.9,0.7,1.5,0.7
			c0.6,0,1.1-0.2,1.5-0.7c0.4-0.5,0.6-1.2,0.6-2.1c0-0.8-0.2-1.4-0.6-1.9c-0.4-0.5-0.9-0.7-1.5-0.7c-0.6,0-1.1,0.2-1.5,0.7
			C131.7,74.8,131.5,75.5,131.5,76.4z"/>
		<path id="XMLID_43_" class="st1" d="M149,79.3c-0.5,0.6-1.2,0.9-2.1,0.9c-0.8,0-1.4-0.2-1.8-0.7c-0.4-0.5-0.6-1.1-0.6-2v-4.7h1.2
			v4.7c0,1.1,0.4,1.7,1.3,1.7c0.9,0,1.6-0.4,1.9-1.1v-5.3h1.2V80H149L149,79.3z"/>
		<path id="XMLID_41_" class="st1" d="M161.7,73.8c-0.2,0-0.4,0-0.6,0c-0.8,0-1.4,0.3-1.7,1V80h-1.2v-7.3h1.2l0,0.8
			c0.4-0.6,1-1,1.7-1c0.2,0,0.4,0,0.6,0.1V73.8z"/>
		<path id="XMLID_37_" class="st1" d="M185.1,71.3H182V80h-1.3v-8.7h-3.1v-1.1h7.6V71.3z"/>
		<path id="XMLID_26_" class="st1" d="M194.8,80.1c-1,0-1.8-0.3-2.4-1s-0.9-1.5-0.9-2.6v-0.2c0-0.7,0.1-1.4,0.4-1.9
			c0.3-0.6,0.7-1,1.2-1.3c0.5-0.3,1-0.5,1.6-0.5c0.9,0,1.7,0.3,2.2,0.9c0.5,0.6,0.8,1.5,0.8,2.7v0.5h-4.9c0,0.7,0.2,1.3,0.6,1.7
			c0.4,0.4,0.9,0.7,1.5,0.7c0.4,0,0.8-0.1,1.1-0.3c0.3-0.2,0.6-0.4,0.8-0.7l0.8,0.6C197,79.7,196.1,80.1,194.8,80.1z M194.7,73.6
			c-0.5,0-0.9,0.2-1.3,0.5c-0.3,0.4-0.6,0.9-0.6,1.5h3.6v-0.1c0-0.6-0.2-1.1-0.5-1.5C195.6,73.8,195.2,73.6,194.7,73.6z"/>
		<path id="XMLID_24_" class="st1" d="M208.1,79.1c0.4,0,0.8-0.1,1.2-0.4s0.5-0.6,0.6-1h1.2c0,0.4-0.2,0.8-0.4,1.2
			c-0.3,0.4-0.6,0.7-1.1,0.9c-0.4,0.2-0.9,0.3-1.4,0.3c-1,0-1.8-0.3-2.4-1c-0.6-0.7-0.9-1.6-0.9-2.7v-0.2c0-0.7,0.1-1.3,0.4-1.9
			c0.3-0.6,0.6-1,1.1-1.3c0.5-0.3,1.1-0.5,1.7-0.5c0.8,0,1.5,0.2,2,0.7c0.5,0.5,0.8,1.1,0.9,1.9h-1.2c0-0.5-0.2-0.9-0.5-1.2
			c-0.3-0.3-0.7-0.5-1.2-0.5c-0.6,0-1.1,0.2-1.5,0.7c-0.3,0.5-0.5,1.1-0.5,2v0.2c0,0.8,0.2,1.5,0.5,1.9
			C207,78.9,207.5,79.1,208.1,79.1z"/>
		<path id="XMLID_20_" class="st1" d="M219.8,73.6c0.6-0.7,1.3-1,2.2-1c1.5,0,2.3,0.9,2.3,2.6V80H223v-4.8c0-0.5-0.1-0.9-0.4-1.2
			c-0.2-0.3-0.6-0.4-1.1-0.4c-0.4,0-0.8,0.1-1.1,0.3s-0.5,0.5-0.7,0.8V80h-1.2V69.7h1.2V73.6z"/>
		<path id="XMLID_18_" class="st1" d="M248.4,71.3h-3.1V80H244v-8.7h-3.1v-1.1h7.6V71.3z"/>
		<path id="XMLID_15_" class="st1" d="M259.5,80c-0.1-0.1-0.1-0.4-0.2-0.8c-0.6,0.6-1.3,0.9-2.1,0.9c-0.7,0-1.3-0.2-1.8-0.6
			c-0.5-0.4-0.7-0.9-0.7-1.5c0-0.8,0.3-1.3,0.9-1.8c0.6-0.4,1.4-0.6,2.4-0.6h1.2V75c0-0.4-0.1-0.8-0.4-1c-0.3-0.3-0.6-0.4-1.1-0.4
			c-0.4,0-0.8,0.1-1.1,0.3s-0.5,0.5-0.5,0.8h-1.3c0-0.4,0.1-0.7,0.4-1.1c0.3-0.3,0.6-0.6,1-0.8c0.4-0.2,0.9-0.3,1.5-0.3
			c0.8,0,1.5,0.2,2,0.6c0.5,0.4,0.7,1,0.7,1.7v3.3c0,0.7,0.1,1.2,0.3,1.6V80H259.5z M257.4,79c0.4,0,0.8-0.1,1.1-0.3
			c0.3-0.2,0.6-0.5,0.8-0.8v-1.5h-1c-1.5,0-2.3,0.4-2.3,1.3c0,0.4,0.1,0.7,0.4,0.9C256.7,78.9,257,79,257.4,79z"/>
		<path id="XMLID_13_" class="st1" d="M269.9,80h-1.2V69.7h1.2V80z"/>
		<path id="XMLID_10_" class="st1" d="M281.1,80.1c-1,0-1.8-0.3-2.4-1c-0.6-0.6-0.9-1.5-0.9-2.6v-0.2c0-0.7,0.1-1.4,0.4-1.9
			c0.3-0.6,0.7-1,1.2-1.3c0.5-0.3,1-0.5,1.6-0.5c0.9,0,1.7,0.3,2.2,0.9s0.8,1.5,0.8,2.7v0.5H279c0,0.7,0.2,1.3,0.6,1.7
			c0.4,0.4,0.9,0.7,1.5,0.7c0.4,0,0.8-0.1,1.1-0.3c0.3-0.2,0.6-0.4,0.8-0.7l0.8,0.6C283.2,79.7,282.3,80.1,281.1,80.1z M280.9,73.6
			c-0.5,0-0.9,0.2-1.3,0.5c-0.3,0.4-0.6,0.9-0.6,1.5h3.6v-0.1c0-0.6-0.2-1.1-0.5-1.5S281.4,73.6,280.9,73.6z"/>
		<path id="XMLID_8_" class="st1" d="M292.6,72.7l0,0.9c0.6-0.7,1.3-1,2.2-1c1.5,0,2.3,0.9,2.3,2.6V80h-1.2v-4.8
			c0-0.5-0.1-0.9-0.4-1.2c-0.2-0.3-0.6-0.4-1.1-0.4c-0.4,0-0.8,0.1-1.1,0.3s-0.5,0.5-0.7,0.8V80h-1.2v-7.3H292.6z"/>
		<path id="XMLID_6_" class="st1" d="M306.8,71v1.8h1.4v1h-1.4v4.5c0,0.3,0.1,0.5,0.2,0.7c0.1,0.1,0.3,0.2,0.6,0.2
			c0.1,0,0.3,0,0.6-0.1v1c-0.3,0.1-0.6,0.1-1,0.1c-0.6,0-1-0.2-1.3-0.5c-0.3-0.3-0.4-0.8-0.4-1.4v-4.5h-1.3v-1h1.3V71H306.8z"/>
		<path id="XMLID_4_" class="st1" d="M320,78.1c0-0.3-0.1-0.6-0.4-0.8c-0.3-0.2-0.7-0.3-1.3-0.5c-0.6-0.1-1.1-0.3-1.5-0.5
			c-0.4-0.2-0.6-0.4-0.8-0.7c-0.2-0.3-0.3-0.6-0.3-0.9c0-0.6,0.3-1.1,0.8-1.5c0.5-0.4,1.1-0.6,1.9-0.6c0.8,0,1.5,0.2,2,0.6
			c0.5,0.4,0.8,1,0.8,1.6h-1.3c0-0.3-0.1-0.6-0.4-0.9c-0.3-0.2-0.7-0.4-1.1-0.4c-0.5,0-0.8,0.1-1.1,0.3s-0.4,0.5-0.4,0.8
			c0,0.3,0.1,0.5,0.4,0.7s0.7,0.3,1.3,0.4c0.6,0.1,1.1,0.3,1.5,0.5c0.4,0.2,0.7,0.4,0.9,0.7c0.2,0.3,0.3,0.6,0.3,1
			c0,0.6-0.3,1.2-0.8,1.6c-0.5,0.4-1.2,0.6-2,0.6c-0.6,0-1.1-0.1-1.5-0.3c-0.4-0.2-0.8-0.5-1.1-0.9c-0.3-0.4-0.4-0.8-0.4-1.2h1.2
			c0,0.4,0.2,0.7,0.5,1c0.3,0.2,0.7,0.4,1.2,0.4c0.5,0,0.8-0.1,1.1-0.3C319.8,78.6,320,78.4,320,78.1z"/>
	</g>
</g>
</svg>
